<?xml version="1.0" standalone="no"?>
<!DOCTYPE svg PUBLIC "-//W3C//DTD SVG 20010904//EN"
 "http://www.w3.org/TR/2001/REC-SVG-20010904/DTD/svg10.dtd">
<svg version="1.0" xmlns="http://www.w3.org/2000/svg"
 width="503.000000pt" height="503.000000pt" viewBox="0 0 503.000000 503.000000"
 preserveAspectRatio="xMidYMid meet">
<metadata>
Created by potrace 1.14, written by Peter Selinger 2001-2017
</metadata>
<g transform="translate(0.000000,503.000000) scale(0.100000,-0.100000)"
fill="#000000" stroke="none">
<path d="M1257 4813 c-4 -3 -7 -98 -7 -210 l0 -203 215 0 215 0 0 -210 0 -210
-212 -2 -213 -3 -3 -207 -2 -208 -208 -2 -207 -3 -3 -622 -2 -623 -200 0 -200
0 0 408 c0 304 -3 411 -12 420 -9 9 -70 12 -215 12 l-203 0 0 -635 0 -635 415
0 415 0 0 -415 0 -415 425 0 425 0 0 -210 0 -210 -415 0 -415 0 0 -205 0 -205
415 0 415 0 0 205 0 205 210 0 210 0 0 210 0 210 415 0 415 0 0 -210 0 -210
210 0 210 0 0 -210 0 -210 415 0 415 0 0 210 0 210 -415 0 -415 0 0 210 0 210
415 0 415 0 0 415 0 415 423 2 422 3 0 630 0 630 -210 0 -210 0 -3 -417 -2
-418 -210 0 -210 0 0 625 0 625 -205 0 -205 0 0 210 0 210 -210 0 -210 0 0
210 0 210 210 0 210 0 0 210 0 210 -210 0 -210 0 0 -210 0 -210 -210 0 -210 0
0 -210 0 -210 -415 0 -415 0 0 210 0 210 -210 0 -210 0 0 210 0 210 -208 0
c-115 0 -212 -3 -215 -7z m841 -2090 l2 -413 -210 0 -210 0 0 415 0 415 208
-2 207 -3 3 -412z m1252 2 l0 -415 -210 0 -210 0 0 415 0 415 210 0 210 0 0
-415z"/>
</g>
</svg>
